<svg version="1.1" xmlns="http://www.w3.org/2000/svg" xmlns:xlink="http://www.w3.org/1999/xlink" viewBox="0 0 172 172"><g fill="none" fill-rule="nonzero" stroke="none" stroke-width="1" stroke-linecap="butt" stroke-linejoin="miter" stroke-miterlimit="10" stroke-dasharray="" stroke-dashoffset="0" font-family="none" font-weight="none" font-size="none" text-anchor="none" style="mix-blend-mode: normal"><path d="M0,172v-172h172v172z" fill="none"></path><g fill="#b0b3b8"><path d="M13.76,0c-7.55187,0 -13.76,6.19469 -13.76,13.76v116.96c0,7.55188 6.20813,13.76 13.76,13.76h17.63l87.935,27.52c7.21594,2.24406 14.95594,-1.81406 17.2,-9.03l34.83,-111.6925c2.2575,-7.21594 -1.81406,-14.95594 -9.03,-17.2l-45.365,-14.0825v-6.235c0,-7.56531 -6.20812,-13.76 -13.76,-13.76zM13.76,6.88h89.44c3.84313,0 6.88,3.03688 6.88,6.88v7.8475c-0.14781,0.56438 -0.14781,1.15563 0,1.72v107.3925c0,3.82969 -3.05031,6.88 -6.88,6.88h-89.44c-3.82969,0 -6.88,-3.05031 -6.88,-6.88v-116.96c0,-3.84312 3.03688,-6.88 6.88,-6.88zM89.87,13.76c-0.28219,0 -0.34937,0.18813 -0.43,0.43l-9.5675,26.66c-0.08062,0.24188 -0.02687,0.43 0.215,0.43h2.9025c0.24188,0 0.41656,-0.14781 0.5375,-0.43l2.0425,-5.9125h11.18l2.0425,5.9125c0.08063,0.28219 0.25531,0.43 0.5375,0.43h2.9025c0.24188,0 0.29563,-0.18812 0.215,-0.43l-9.3525,-26.66c-0.08062,-0.24187 -0.25531,-0.43 -0.5375,-0.43zM91.16,19.0275h0.1075l4.3,12.5775h-8.815zM116.96,27.09l43.3225,13.545c3.66844,1.14219 5.65719,4.93156 4.515,8.6l-34.83,111.6925c-1.14219,3.655 -4.93156,5.65719 -8.6,4.515l-66.9725,-20.9625h48.805c7.55188,0 13.76,-6.20812 13.76,-13.76zM145.125,43.215c-0.09406,0.04031 -0.14781,0.1075 -0.215,0.215l-17.0925,22.6825c-0.14781,0.215 -0.12094,0.36281 0.1075,0.43l2.795,0.86c0.24188,0.06719 0.33594,0.01344 0.5375,-0.215l3.87,-5.0525l10.6425,3.225l0.215,6.3425c-0.01344,0.29563 0.05375,0.56438 0.3225,0.645l2.6875,0.7525c0.22844,0.06719 0.44344,0.04031 0.43,-0.215l-1.075,-28.38c-0.01344,-0.25531 -0.05375,-0.45687 -0.3225,-0.5375l-2.58,-0.7525c-0.13437,-0.04031 -0.22844,-0.04031 -0.3225,0zM58.48,48.16c0,0 -17.10594,12.96719 -17.0925,22.0375c0,5.41531 3.68188,8.815 8.815,8.815c2.45906,-0.01344 5.02563,-0.28219 6.5575,-1.72c0,0 -3.26531,8.33125 -5.16,12.1475c-0.3225,0.645 14.0825,0.65844 13.76,0c-1.89469,-3.82969 -5.16,-12.1475 -5.16,-12.1475c1.53188,1.505 3.89688,1.72 6.5575,1.72c5.14656,-0.01344 8.815,-3.50719 8.815,-8.9225c-0.01344,-9.07031 -17.0925,-21.93 -17.0925,-21.93zM145.125,48.6975l0.43,13.2225l-8.385,-2.6875zM14.7275,103.2c-0.24187,0 -0.29562,0.18813 -0.215,0.43l9.3525,26.66c0.08063,0.24188 0.25531,0.43 0.5375,0.43h2.6875c0.28219,0 0.34938,-0.18812 0.43,-0.43l9.5675,-26.66c0.08063,-0.24187 0.02688,-0.43 -0.215,-0.43h-2.9025c-0.24187,0 -0.41656,0.14781 -0.5375,0.43l-2.0425,5.9125h-11.18l-2.0425,-5.9125c-0.08062,-0.28219 -0.25531,-0.43 -0.5375,-0.43zM21.3925,112.875h8.815l-4.4075,12.5775h-0.1075z"></path></g></g></svg>