<svg version="1.1" xmlns="http://www.w3.org/2000/svg" xmlns:xlink="http://www.w3.org/1999/xlink" viewBox="0 0 172 172"><g fill="none" fill-rule="nonzero" stroke="none" stroke-width="1" stroke-linecap="butt" stroke-linejoin="miter" stroke-miterlimit="10" stroke-dasharray="" stroke-dashoffset="0" font-family="none" font-weight="none" font-size="none" text-anchor="none" style="mix-blend-mode: normal"><path d="M0,172v-172h172v172z" fill="none"></path><g><path d="M111.08333,132.58333c0,1.98158 -1.60175,3.58333 -3.58333,3.58333h-82.41667c-1.98158,0 -3.58333,-1.60175 -3.58333,-3.58333v-114.66667c0,-1.98158 1.60175,-3.58333 3.58333,-3.58333h82.41667c1.98158,0 3.58333,1.60175 3.58333,3.58333z" fill="#cfd8dc"></path><path d="M151.51767,40.71383l-40.43433,-11.99342v103.86292c0,1.98158 -1.60175,3.58333 -3.58333,3.58333h-62.60442l71.97125,21.3495c1.89558,0.56617 3.8915,-0.51958 4.45408,-2.41517l32.61192,-109.93308c0.56258,-1.89917 -0.51958,-3.88792 -2.41517,-4.45408z" fill="#cfd8dc"></path><path d="M136.24192,58.85983l-5.89817,-1.74867l-1.978,2.9025l-4.59383,-1.36525l11.63508,-15.23275l4.04558,1.20042l1.49425,19.13142l-4.61533,-1.36883zM132.32892,54.21583l3.83058,1.13233l-0.15408,-6.52167zM116.30783,70.20825c-1.73433,-0.57333 -3.49733,-0.817 -5.2245,-0.817v34.5075c7.12008,-2.67675 13.5235,-6.32817 15.76667,-13.10067c2.8165,-8.514 -1.90633,-17.72675 -10.54217,-20.58983z" fill="#ff3d00"></path><path d="M118.25,30.84533l-7.16667,-2.12492v103.86292c0,1.98158 -1.60175,3.58333 -3.58333,3.58333h-62.60442l24.15883,7.16667h38.44558c5.92683,0 10.75,-4.82317 10.75,-10.75z" fill="#90a4ae"></path><g fill="#263238"><path d="M67.6605,71.07183h-1.36883h-1.36883c1.36883,20.90158 -8.22017,29.2615 -8.22017,29.2615h19.178c0,0 -9.589,-8.35992 -8.22017,-29.2615z"></path><path d="M55.7065,89.18558c4.42542,0 8.30975,-2.22525 10.58517,-5.60433c2.27542,3.37908 6.15975,5.60433 10.58875,5.60433c7.01258,0 12.70292,-5.60433 12.70292,-12.52017c0,-12.45925 -19.79792,-18.45775 -23.29167,-26.49875c-3.49375,8.03742 -23.29167,13.93558 -23.29167,26.49875c0,6.91225 5.69033,12.52017 12.7065,12.52017M98.0185,36.06983h-6.15258l-1.07142,3.34683h-4.7945l6.82267,-17.91667h4.21758l6.87642,17.91667h-4.816zM92.9445,32.73375h3.99542l-2.00308,-6.20992zM41.76733,111.08333h4.816l-6.87642,17.91667h-4.21758l-6.82267,-17.91667h4.7945l1.07142,3.34683h6.15258zM37.6035,123.97975l2.00308,-6.20992h-3.99542z"></path></g><path d="M111.08333,103.89517c2.54058,-0.95317 4.96292,-2.05683 7.16667,-3.36117v-29.46575c-0.63783,-0.30458 -1.25417,-0.63783 -1.94217,-0.86358c-1.73792,-0.57333 -3.49733,-0.817 -5.2245,-0.817z" fill="#dd2c00"></path></g></g></svg>