<svg version="1.1" xmlns="http://www.w3.org/2000/svg" xmlns:xlink="http://www.w3.org/1999/xlink" viewBox="0 0 172 172"><g fill="none" fill-rule="nonzero" stroke="none" stroke-width="1" stroke-linecap="butt" stroke-linejoin="miter" stroke-miterlimit="10" stroke-dasharray="" stroke-dashoffset="0" font-family="none" font-weight="none" font-size="none" text-anchor="none" style="mix-blend-mode: normal"><path d="M0,172v-172h172v172z" fill="none"></path><g fill="#b0b3b8"><path d="M159.6375,0.645c-1.10187,0.08063 -2.23062,0.30906 -3.3325,0.5375c-4.4075,0.94063 -9.1375,2.98313 -13.76,5.375c-9.19125,4.75688 -17.5225,10.77688 -21.07,14.5125h-0.1075l-23.22,23.1125l-82.56,-11.18c-1.08844,-0.12094 -2.16344,0.28219 -2.9025,1.075l-11.7175,12.04c-0.79281,0.81969 -1.14219,1.98875 -0.90031,3.10406c0.24187,1.12875 1.02125,2.05594 2.08281,2.48594l63.64,24.94l-32.7875,33.4325h-15.8025c-0.83312,0 -1.63937,0.30906 -2.2575,0.86l-13.76,11.61c-1.02125,0.83313 -1.47812,2.16344 -1.1825,3.44c0.29562,1.29 1.30344,2.28438 2.58,2.58l32.7875,8.0625l8.0625,32.7875c0.29563,1.15563 1.1825,2.06938 2.31125,2.41875c1.14219,0.34938 2.37844,0.08063 3.27875,-0.69875l11.7175,-10.32c0.7525,-0.645 1.1825,-1.58562 1.1825,-2.58v-19.2425l33.755,-32.7875l24.6175,63.64c0.43,1.06156 1.35719,1.84094 2.48594,2.08281c1.11531,0.24187 2.28438,-0.1075 3.10406,-0.90031l12.04,-11.7175c0.79281,-0.73906 1.19594,-1.81406 1.075,-2.9025l-11.18,-82.56l23.22,-23.22c3.57438,-3.57437 9.63469,-12.09375 14.405,-21.285c2.39188,-4.59562 4.43438,-9.27187 5.375,-13.6525c0.94063,-4.38062 0.95406,-9.00312 -2.15,-12.255c-0.04031,-0.04031 -0.06719,-0.06719 -0.1075,-0.1075c-1.62594,-1.55875 -3.58781,-2.31125 -5.6975,-2.58c-1.04812,-0.13437 -2.12312,-0.18812 -3.225,-0.1075zM159.96,7.6325c1.96188,-0.13437 3.10406,0.26875 3.655,0.7525c0.65844,0.73906 1.14219,2.59344 0.43,5.9125c-0.72562,3.37281 -2.51281,7.67281 -4.73,11.9325c-4.43437,8.53281 -10.83062,17.17313 -13.115,19.4575l-24.4025,24.51c-0.76594,0.71219 -1.15562,1.74688 -1.075,2.795l11.18,82.6675l-6.9875,6.7725l-24.725,-63.5325c-0.40312,-1.075 -1.33031,-1.88125 -2.44562,-2.15c-1.12875,-0.25531 -2.31125,0.06719 -3.14438,0.86l-38.485,37.5175c-0.68531,0.645 -1.06156,1.53188 -1.075,2.4725v19.135l-6.3425,5.4825l-7.2025,-29.24c-0.30906,-1.20937 -1.26312,-2.16344 -2.4725,-2.4725l-28.2725,-6.9875l7.74,-6.5575h15.91c0.94063,-0.01344 1.8275,-0.38969 2.4725,-1.075l37.5175,-38.1625c0.79281,-0.83312 1.11531,-2.01562 0.86,-3.14437c-0.26875,-1.11531 -1.075,-2.0425 -2.15,-2.44563l-63.5325,-24.94l6.7725,-7.095l82.6675,11.18c1.04813,0.08063 2.08281,-0.30906 2.795,-1.075l24.51,-24.4025c1.98875,-2.10969 10.77688,-8.68062 19.35,-13.115c4.28656,-2.21719 8.64031,-4.00437 12.04,-4.73c0.83313,-0.17469 1.59906,-0.28219 2.2575,-0.3225z"></path></g></g></svg>