<svg version="1.1" xmlns="http://www.w3.org/2000/svg" xmlns:xlink="http://www.w3.org/1999/xlink" viewBox="0 0 172 172"><g fill="none" fill-rule="nonzero" stroke="none" stroke-width="1" stroke-linecap="butt" stroke-linejoin="miter" stroke-miterlimit="10" stroke-dasharray="" stroke-dashoffset="0" font-family="none" font-weight="none" font-size="none" text-anchor="none" style="mix-blend-mode: normal"><path d="M0,172v-172h172v172z" fill="none"></path><g><path d="M114.66667,157.66667l-21.5,-7.16667l2.15,-28.66667l19.35,21.5zM150.5,121.83333l-53.75,-26.51667l-0.71667,-25.08333l-0.71667,-16.48333l55.18333,54.46667zM57.33333,157.66667l21.5,-7.16667l-2.15,-28.66667l-19.35,21.5zM21.5,121.83333l53.75,-26.51667l0.71667,-25.08333l0.71667,-16.48333l-55.18333,54.46667z" fill="#2196f3"></path><path d="M86,14.33333v0c-7.88333,0 -14.33333,6.45 -14.33333,14.33333v118.25c0,3.94167 3.225,7.16667 7.16667,7.16667h14.33333c3.94167,0 7.16667,-3.225 7.16667,-7.16667v-118.25c0,-7.88333 -6.45,-14.33333 -14.33333,-14.33333z" fill="#64b5f6"></path><path d="M82.41667,121.83333h7.16667v32.25h-7.16667z" fill="#2196f3"></path></g></g></svg>