<svg version="1.1" xmlns="http://www.w3.org/2000/svg" xmlns:xlink="http://www.w3.org/1999/xlink" viewBox="0 0 172 172"><g fill="none" fill-rule="nonzero" stroke="none" stroke-width="1" stroke-linecap="butt" stroke-linejoin="miter" stroke-miterlimit="10" stroke-dasharray="" stroke-dashoffset="0" font-family="none" font-weight="none" font-size="none" text-anchor="none" style="mix-blend-mode: normal"><path d="M0,172v-172h172v172z" fill="none"></path><g><path d="M35.83333,68.08333c0,0 0,17.2 3.58333,25.08333c3.58333,7.88333 11.46667,10.75 21.5,10.75h57.33333c10.03333,0 17.91667,-2.86667 21.5,-10.75c3.58333,-7.88333 3.58333,-25.08333 3.58333,-25.08333zM142.975,66.29167c-5.01667,-7.525 -6.09167,-12.9 -6.09167,-22.21667l-2.15,-3.225c-8.24167,-2.15 -14.33333,-7.525 -16.84167,-16.48333l-3.225,-2.86667c-8.95833,0.71667 -18.275,-1.43333 -25.08333,-7.16667v53.75h53.75z" fill="#f44336"></path><path d="M60.91667,103.91667h57.33333c10.03333,0 17.91667,-2.86667 21.5,-10.75h-100.33333c3.58333,8.24167 11.46667,10.75 21.5,10.75z" fill="#455a64"></path><path d="M118.25,136.16667c0,6.09167 -4.65833,10.75 -10.75,10.75h-32.25c0,0 0,-4.65833 0,-10.75v-3.58333h43z" fill="#37474f"></path><path d="M89.58333,71.66667c-0.35833,0 -0.71667,0 -1.075,0c-1.43333,-0.35833 -2.50833,-1.79167 -2.50833,-3.58333v-50.16667c0,-2.15 1.43333,-3.58333 3.58333,-3.58333c2.15,0 3.58333,1.43333 3.58333,3.58333v36.90833l18.275,-31.53333c1.075,-1.79167 3.225,-2.15 5.01667,-1.43333c1.79167,1.075 2.15,3.225 1.43333,5.01667l-24.725,43c-1.075,1.075 -2.15,1.79167 -3.58333,1.79167z" fill="#dd2c00"></path><path d="M139.75,71.66667h-50.16667c-1.79167,0 -3.225,-1.075 -3.58333,-2.86667c-0.35833,-1.43333 0.35833,-3.225 1.79167,-3.94167l43.71667,-24.00833c1.79167,-1.075 3.94167,-0.35833 5.01667,1.43333c1.075,1.79167 0.35833,3.94167 -1.43333,5.01667l-31.53333,17.2h36.19167c2.15,0 3.58333,1.43333 3.58333,3.58333c0,2.15 -1.43333,3.58333 -3.58333,3.58333z" fill="#dd2c00"></path><path d="M46.58333,136.16667h28.66667v7.16667h-28.66667z" fill="#cfd8dc"></path><path d="M57.33333,125.41667h7.16667v28.66667h-7.16667z" fill="#cfd8dc"></path><path d="M33.50835,49.07409l5.06751,-5.06769l87.16422,87.16117l-5.06751,5.06769z" fill="#b0bec5"></path><path d="M71.66667,132.58333c-0.71667,0 -1.79167,-0.35833 -2.50833,-1.075c-1.43333,-1.43333 -1.43333,-3.58333 0,-5.01667l22.93333,-23.65c1.43333,-1.43333 3.58333,-1.43333 5.01667,0c1.43333,1.43333 1.43333,3.58333 0,5.01667l-22.93333,23.65c-0.71667,0.71667 -1.43333,1.075 -2.50833,1.075z" fill="#b0bec5"></path><path d="M129,143.33333c0,6.09167 -4.65833,10.75 -10.75,10.75c-6.09167,0 -10.75,-4.65833 -10.75,-10.75c0,-6.09167 4.65833,-10.75 10.75,-10.75c6.09167,0 10.75,4.65833 10.75,10.75z" fill="#cfd8dc"></path><path d="M118.25,157.66667c-7.88333,0 -14.33333,-6.45 -14.33333,-14.33333c0,-7.88333 6.45,-14.33333 14.33333,-14.33333c7.88333,0 14.33333,6.45 14.33333,14.33333c0,7.88333 -6.45,14.33333 -14.33333,14.33333zM118.25,136.16667c-3.94167,0 -7.16667,3.225 -7.16667,7.16667c0,3.94167 3.225,7.16667 7.16667,7.16667c3.94167,0 7.16667,-3.225 7.16667,-7.16667c0,-3.94167 -3.225,-7.16667 -7.16667,-7.16667zM60.91667,157.66667c-10.03333,0 -17.91667,-7.88333 -17.91667,-17.91667c0,-10.03333 7.88333,-17.91667 17.91667,-17.91667c10.03333,0 17.91667,7.88333 17.91667,17.91667c0,10.03333 -7.88333,17.91667 -17.91667,17.91667zM60.91667,129c-6.09167,0 -10.75,4.65833 -10.75,10.75c0,6.09167 4.65833,10.75 10.75,10.75c6.09167,0 10.75,-4.65833 10.75,-10.75c0,-6.09167 -4.65833,-10.75 -10.75,-10.75z" fill="#607d8b"></path><path d="M33.35351,49.17129l5.06751,-5.06769l10.64214,10.64177l-5.06751,5.06769z" fill="#455a64"></path><path d="M39.41667,46.58333c0,2.15 -1.43333,3.58333 -3.58333,3.58333c-2.15,0 -3.58333,-1.43333 -3.58333,-3.58333c0,-2.15 1.43333,-3.58333 3.58333,-3.58333c2.15,0 3.58333,1.43333 3.58333,3.58333zM121.83333,143.33333c0,2.15 -1.43333,3.58333 -3.58333,3.58333c-2.15,0 -3.58333,-1.43333 -3.58333,-3.58333c0,-2.15 1.43333,-3.58333 3.58333,-3.58333c2.15,0 3.58333,1.43333 3.58333,3.58333zM64.5,139.75c0,2.15 -1.43333,3.58333 -3.58333,3.58333c-2.15,0 -3.58333,-1.43333 -3.58333,-3.58333c0,-2.15 1.43333,-3.58333 3.58333,-3.58333c2.15,0 3.58333,1.43333 3.58333,3.58333z" fill="#455a64"></path></g></g></svg>