<svg version="1.1" xmlns="http://www.w3.org/2000/svg" xmlns:xlink="http://www.w3.org/1999/xlink" viewBox="0 0 172 172"><g fill="none" fill-rule="nonzero" stroke="none" stroke-width="1" stroke-linecap="butt" stroke-linejoin="miter" stroke-miterlimit="10" stroke-dasharray="" stroke-dashoffset="0" font-family="none" font-weight="none" font-size="none" text-anchor="none" style="mix-blend-mode: normal"><path d="M0,172v-172h172v172z" fill="none"></path><g fill="#b0b3b8"><path d="M111.155,5.95281l-0.95406,3.45344l-16.50125,59.39375h-7.96844c-1.69312,-11.63687 -11.7175,-20.64 -23.81125,-20.64c-12.09375,0 -22.11812,9.00313 -23.81125,20.64h-20.90875c-1.23625,-0.01344 -2.39187,0.63156 -3.02344,1.70656c-0.61813,1.075 -0.61813,2.39187 0,3.46687c0.63156,1.075 1.78719,1.72 3.02344,1.70656h0.69875c5.20031,21.43281 24.05313,36.89938 46.17125,37.74594l16.35344,12.87313l-10.87094,8.54625c-2.98312,-2.56656 -6.83969,-4.12531 -11.0725,-4.12531c-9.48687,0 -17.2,7.71313 -17.2,17.2c0,9.48688 7.71313,17.2 17.2,17.2c9.48688,0 17.2,-7.71312 17.2,-17.2c0,-0.13437 -0.04031,-0.26875 -0.04031,-0.40312l-10.15875,7.98187c-0.04031,0.04031 -0.1075,0.04031 -0.14781,0.08063c-1.8275,1.63937 -4.21938,2.66062 -6.85313,2.66062c-5.68406,0 -10.32,-4.63594 -10.32,-10.32c0,-5.68406 4.63594,-10.32 10.32,-10.32c2.02906,0 3.89688,0.61813 5.4825,1.62594l-7.60562,5.99313c-1.49156,1.16906 -1.76031,3.3325 -0.59125,4.82406c1.1825,1.49156 3.34594,1.76031 4.8375,0.57781l25.39687,-19.95469l25.39688,19.95469c1.49156,1.1825 3.655,0.91375 4.8375,-0.57781c1.16906,-1.49156 0.90031,-3.655 -0.59125,-4.82406l-7.60563,-5.99313c1.58563,-1.00781 3.45344,-1.62594 5.4825,-1.62594c5.68406,0 10.32,4.63594 10.32,10.32c0,5.68406 -4.63594,10.32 -10.32,10.32c-2.63375,0 -5.02562,-1.02125 -6.85312,-2.66062c-0.04031,-0.04031 -0.1075,-0.04031 -0.14781,-0.08063l-10.15875,-7.98187c0,0.13437 -0.04031,0.26875 -0.04031,0.40312c0,9.48688 7.71313,17.2 17.2,17.2c9.48688,0 17.2,-7.71312 17.2,-17.2c0,-9.48687 -7.71312,-17.2 -17.2,-17.2c-4.23281,0 -8.08937,1.55875 -11.0725,4.12531l-10.87094,-8.54625l16.35344,-12.87313c22.11813,-0.84656 40.97094,-16.31312 46.17125,-37.74594h0.69875c1.23625,0.01344 2.39188,-0.63156 3.02344,-1.70656c0.61813,-1.075 0.61813,-2.39187 0,-3.46687c-0.63156,-1.075 -1.78719,-1.72 -3.02344,-1.70656h-0.02687c-0.48375,-23.66344 -9.97063,-39.18375 -19.63219,-48.56312c-10.11844,-9.82281 -20.57281,-13.19563 -20.57281,-13.19563zM61.92,10.32c-9.46,0 -17.2,7.74 -17.2,17.2c0,9.46 7.74,17.2 17.2,17.2c9.46,0 17.2,-7.74 17.2,-17.2c0,-9.46 -7.74,-17.2 -17.2,-17.2zM115.76406,15.07688c3.15781,1.38406 8.25062,3.95062 14.59312,10.105c8.53281,8.29094 16.77,21.93 17.29406,43.61812h-46.81625zM61.92,17.2c5.73781,0 10.32,4.58219 10.32,10.32c0,5.73781 -4.58219,10.32 -10.32,10.32c-5.73781,0 -10.32,-4.58219 -10.32,-10.32c0,-5.73781 4.58219,-10.32 10.32,-10.32zM61.92,55.04c8.35813,0 15.27844,5.88563 16.86406,13.76h-33.72813c1.58563,-7.87437 8.50594,-13.76 16.86406,-13.76zM25.53125,75.68h120.9375c-5.18687,17.845 -20.9625,30.65094 -39.82875,30.93313c-0.02687,0 -0.04031,0 -0.06719,0.01344c-0.18813,0 -0.36281,0.01344 -0.55094,0.01344h-40.04375c-0.12094,0 -0.22844,-0.01344 -0.34938,-0.01344c-0.06719,-0.01344 -0.14781,-0.01344 -0.215,-0.01344c-18.89312,-0.25531 -34.69562,-13.07469 -39.8825,-30.93313zM75.30375,113.52h21.3925l-10.69625,8.39844z"></path></g></g></svg>