<svg version="1.1" xmlns="http://www.w3.org/2000/svg" xmlns:xlink="http://www.w3.org/1999/xlink" viewBox="0 0 172 172"><g fill="none" fill-rule="nonzero" stroke="none" stroke-width="1" stroke-linecap="butt" stroke-linejoin="miter" stroke-miterlimit="10" stroke-dasharray="" stroke-dashoffset="0" font-family="none" font-weight="none" font-size="none" text-anchor="none" style="mix-blend-mode: normal"><path d="M0,172v-172h172v172z" fill="none"></path><g fill="#b0b3b8"><path d="M110.1875,3.44c-7.21594,0 -13.50469,2.67406 -17.7375,7.2025c-4.23281,4.52844 -6.45,10.77688 -6.45,17.63c0,7.55188 3.05031,12.83281 5.59,17.7375c2.53969,4.90469 4.73,9.60781 4.73,17.63c0,10.40063 -8.62687,20.25031 -22.6825,27.6275c-14.05562,7.37719 -33.08312,11.9325 -51.9225,11.9325c-1.92156,0 -3.50719,0.09406 -5.0525,0.86c-1.54531,0.76594 -3.01,3.01 -2.9025,4.8375c0.04031,0.69875 0.5375,0.9675 0.7525,1.505c-0.645,0.1075 -1.45125,0.05375 -2.0425,0.215c-1.19594,0.3225 -2.35156,0.77938 -3.44,1.6125c-1.08844,0.83313 -2.15,2.48594 -2.15,4.1925c0,1.70656 0.80625,2.98313 1.72,4.085c0.91375,1.10188 2.06938,2.05594 3.5475,3.1175c2.95625,2.10969 7.25625,4.46125 13.4375,7.31c0,0.04031 0,0.06719 0,0.1075c10.70969,4.93156 28.4875,9.87656 47.3,12.1475c0.79281,4.04469 0.24188,7.08156 -0.7525,9.7825c-1.16906,3.17125 -3.3325,5.53625 -3.3325,9.5675c0,2.51281 1.72,4.55531 3.44,5.6975c1.72,1.14219 3.61469,1.84094 5.805,2.365c4.38063,1.06156 9.72875,1.3975 14.7275,1.3975c6.04688,0 10.50813,-0.29562 13.76,-0.9675c1.62594,-0.33594 2.95625,-0.77937 4.1925,-1.505c1.23625,-0.72562 2.6875,-2.23062 2.6875,-4.3c0,-0.43 -0.36281,-0.48375 -0.43,-0.86c0.5375,-0.25531 1.03469,-0.52406 1.6125,-0.9675c0.91375,-0.69875 2.15,-1.90812 2.15,-3.9775c0,-2.12312 -1.31687,-3.41312 -2.2575,-4.085c-0.41656,-0.29562 -0.79281,-0.33594 -1.1825,-0.5375c0.02688,-0.215 0.215,-0.3225 0.215,-0.5375c0,-2.02906 -1.37062,-3.18469 -2.15,-3.655c-0.77937,-0.47031 -1.47812,-0.645 -2.2575,-0.86c-1.55875,-0.43 -3.41312,-0.72562 -5.6975,-0.9675c-4.56875,-0.48375 -10.65594,-0.7525 -17.415,-0.7525c-1.23625,-0.01344 -2.39187,0.63156 -3.02344,1.70656c-0.61813,1.075 -0.61813,2.39187 0,3.46687c0.63156,1.075 1.78719,1.72 3.02344,1.70656c6.58438,0 12.49688,0.30906 16.6625,0.7525c0.81969,0.09406 1.15563,0.215 1.8275,0.3225c-0.24187,1.3975 0.38969,2.80844 1.6125,3.5475c-1.55875,1.04813 -1.98875,3.15781 -0.9675,4.73c-2.41875,0.49719 -6.57094,0.86 -12.3625,0.86c-4.63594,0 -9.64812,-0.45687 -13.115,-1.29c-1.73344,-0.41656 -3.03687,-0.87344 -3.655,-1.29c-0.215,-0.14781 -0.28219,-0.08062 -0.3225,-0.1075c0.05375,-0.37625 1.46469,-3.17125 2.9025,-7.095c1.11531,-3.02344 1.92156,-6.89344 1.3975,-11.5025c4.48813,0.37625 9.00313,0.645 13.4375,0.645c21.41938,0 35.19281,-5.73781 43.5375,-13.76c8.34469,-8.02219 10.965,-18.01969 10.965,-26.015c0,-12.28187 -6.61125,-21.63437 -12.685,-29.67c-6.07375,-8.03562 -11.395,-14.86187 -11.395,-21.715c0,-2.39187 0.41656,-3.49375 0.86,-4.085c0.44344,-0.59125 1.10188,-1.02125 2.4725,-1.3975c2.74125,-0.7525 7.82063,-0.73906 13.545,-2.15c7.16219,-1.76031 12.02656,-4.01781 15.3725,-6.3425c3.34594,-2.32469 5.24063,-4.73 6.3425,-6.1275c1.65281,-2.10969 2.94281,-4.54187 2.58,-7.6325c-0.17469,-1.54531 -1.27656,-3.46687 -3.01,-4.3c-1.73344,-0.83312 -3.45344,-0.67187 -5.2675,-0.215c-3.14437,0.77938 -7.31,1.505 -11.18,1.505c-3.87,0 -7.40406,-0.80625 -9.3525,-2.15c-1.69312,-1.16906 -3.84312,-5.09281 -7.525,-9.1375c-3.68187,-4.04469 -9.51375,-7.8475 -18.49,-7.8475zM110.1875,10.32c7.21594,0 10.46781,2.44563 13.33,5.59c2.86219,3.14438 4.70313,7.39063 8.815,10.2125c3.84313,2.64719 8.58656,3.3325 13.2225,3.3325c4.32688,0 8.43875,-0.79281 11.9325,-1.6125c-0.18812,0.48375 -0.17469,0.60469 -0.5375,1.075c-1.12875,1.45125 -2.28437,2.96969 -4.8375,4.73c-2.55312,1.76031 -6.47687,3.77594 -13.0075,5.375c-4.66281,1.14219 -9.33906,0.92719 -13.76,2.15c-2.21719,0.60469 -4.52844,1.74688 -6.1275,3.87c-1.59906,2.12313 -2.2575,4.97188 -2.2575,8.2775c0,10.11844 6.71875,17.89875 12.685,25.8c5.96625,7.90125 11.395,15.8025 11.395,25.585c0,6.49031 -2.12312,14.52594 -8.9225,21.07c-6.79937,6.54406 -18.49,11.825 -38.7,11.825c-24.26812,0 -51.93594,-6.85312 -65.0375,-12.9c-5.95281,-2.74125 -9.91687,-4.99875 -12.255,-6.665c-0.51062,-0.36281 -0.61812,-0.56437 -0.9675,-0.86c1.3975,-0.26875 3.19813,-0.43 5.59,-0.43c1.47813,0.05375 2.82188,-0.86 3.34594,-2.24406c0.51063,-1.3975 0.06719,-2.95625 -1.08844,-3.88344c-0.29562,-0.24187 -0.40312,-0.41656 -0.645,-0.645c19.71281,-0.1075 39.39875,-4.75687 54.5025,-12.685c15.27844,-8.02219 26.3375,-19.565 26.3375,-33.6475c0,-9.37937 -2.96969,-15.77562 -5.59,-20.855c-2.62031,-5.07937 -4.73,-8.74781 -4.73,-14.5125c0,-5.36156 1.70656,-9.7825 4.6225,-12.9c2.91594,-3.1175 7.12188,-5.0525 12.685,-5.0525zM115.24,20.64c-2.84875,0 -5.16,2.31125 -5.16,5.16c0,2.84875 2.31125,5.16 5.16,5.16c2.84875,0 5.16,-2.31125 5.16,-5.16c0,-2.84875 -2.31125,-5.16 -5.16,-5.16z"></path></g></g></svg>