<svg version="1.1" xmlns="http://www.w3.org/2000/svg" xmlns:xlink="http://www.w3.org/1999/xlink" viewBox="0 0 172 172"><g fill="none" fill-rule="nonzero" stroke="none" stroke-width="1" stroke-linecap="butt" stroke-linejoin="miter" stroke-miterlimit="10" stroke-dasharray="" stroke-dashoffset="0" font-family="none" font-weight="none" font-size="none" text-anchor="none" style="mix-blend-mode: normal"><path d="M0,172v-172h172v172z" fill="none"></path><g><path d="M32.63342,122.6575c-2.50117,-12.20483 6.87283,-36.83308 37.80417,-36.83308c22.20592,0 30.917,13.3945 54.9755,6.69725c0,0 -3.94525,43.56258 -48.36783,50.22758c-17.30392,2.59792 -40.98258,-3.35042 -44.41183,-20.09175z" fill="#bdbdbd"></path><path d="M161.25,112.19417c0,10.492 -23.94383,45.4725 -78.67208,45.4725c-41.0435,0 -71.82792,-13.99292 -71.82792,-48.97342c0,-15.74158 13.84242,-26.918 20.52175,-34.9805c22.47825,-27.12942 13.717,-38.442 13.68117,-38.47783c-0.24008,0.35117 -3.42208,6.99467 -13.68117,6.99467c-8.82575,0 -10.26267,-10.49558 -10.26267,-13.99292c0.00358,-10.492 10.26267,-17.48667 20.52533,-17.48667c13.68117,0 19.38225,11.17642 19.38225,28.66667c0,25.39508 -27.07925,53.01183 -11.75333,68.50975c1.54083,1.54083 3.52242,2.97417 6.05583,4.26775l61.56883,-10.49558l24.45625,5.77275z" fill="#e0e0e0"></path><path d="M143.33333,108.38867c-4.6655,13.4375 -16.36867,33.5615 -45.193,37.94033c-17.19283,2.61225 -42.96417,-2.8165 -47.59742,-30.3365c-0.37625,-2.33992 -0.27592,-4.78375 0.41208,-7.1595c1.54442,1.49425 3.53317,2.88458 6.07375,4.13875l61.7695,-10.18025z" fill="#bdbdbd"></path><path d="M37.61425,24.2305c0.6665,-0.68442 0.6665,-1.79167 0,-2.4725c-0.6665,-0.68442 -1.75225,-0.68442 -2.41875,0c-0.32608,0.32967 -0.46225,0.30817 -1.42617,1.72c-9.33817,-0.37625 -12.68858,3.31817 -12.68858,3.31817c-3.49017,5.16 -0.21142,8.43875 1.204,8.43875c6.82983,1.94217 12.40908,5.289 12.40908,5.289c-2.01742,-10.77508 0.42642,-13.74925 1.04992,-14.74183c0.89225,-0.69158 1.64117,-1.31867 1.8705,-1.55158z" fill="#212121"></path><path d="M23.34542,28.66667c0,0 8.48175,4.08142 11.34483,11.85725c-15.75233,11.67808 -15.70217,10.60667 -18.33592,13.22608c0,0 -4.02408,-2.11417 -0.57333,-6.34608c3.45075,-4.23192 3.2035,-6.26008 7.353,-14.37275c0,0 -0.93525,-3.30742 0.21142,-4.3645z" fill="#e57373"></path><path d="M50.55008,117.84867c-2.49758,-12.92508 6.87283,-39.01533 37.80775,-39.01533c22.20592,0 30.917,14.18642 54.9755,7.095c0,0 -3.94525,46.14617 -48.36783,53.20533c-17.3075,2.74842 -40.98617,-3.55108 -44.41542,-21.285z" fill="#e0e0e0"></path><path d="M126.77833,87.68417c-8.385,14.15417 -14.90667,31.74833 -55.86417,49.665c-10.06917,-3.1175 -18.41833,-9.46 -20.35333,-19.49333c-2.50833,-12.93583 6.88,-39.0225 37.80417,-39.0225c16.26833,0 25.29833,7.59667 38.41333,8.85083z" fill="#eeeeee"></path></g></g></svg>