<svg version="1.1" xmlns="http://www.w3.org/2000/svg" xmlns:xlink="http://www.w3.org/1999/xlink" viewBox="0 0 172 172"><g fill="none" fill-rule="nonzero" stroke="none" stroke-width="1" stroke-linecap="butt" stroke-linejoin="miter" stroke-miterlimit="10" stroke-dasharray="" stroke-dashoffset="0" font-family="none" font-weight="none" font-size="none" text-anchor="none" style="mix-blend-mode: normal"><path d="M0,172v-172h172v172z" fill="none"></path><g fill="#b0b3b8"><path d="M61.5975,-0.1075c-0.14781,0.02687 -0.29562,0.06719 -0.43,0.1075c-1.59906,0.36281 -2.72781,1.80063 -2.6875,3.44v19.0275c-6.19469,2.40531 -9.5675,6.3425 -9.5675,6.3425l-0.7525,0.9675v1.1825c0,8.18344 4.97188,14.95594 9.5675,19.78c2.84875,2.99656 3.93719,3.52063 5.6975,4.8375c-4.05812,3.03688 -14.27062,11.00531 -26.445,24.8325c-14.90219,16.91781 -30.1,40.42 -30.1,66.865v1.075l0.645,0.86c0,0 0.73906,1.04813 2.0425,2.15c1.30344,1.10188 3.27875,2.43219 6.1275,3.7625c5.52281,2.58 14.5125,4.90469 27.95,5.0525c0.77938,0.65844 3.42656,2.98313 9.7825,5.805c7.2025,3.18469 17.97938,6.3425 32.5725,6.3425c14.59313,0 25.37,-3.15781 32.5725,-6.3425c6.35594,-2.82187 9.00313,-5.14656 9.7825,-5.805c13.4375,-0.14781 22.42719,-2.4725 27.95,-5.0525c2.84875,-1.33031 4.82406,-2.66062 6.1275,-3.7625c1.30344,-1.10187 2.0425,-2.15 2.0425,-2.15l0.645,-0.86v-1.075c0,-26.445 -15.19781,-49.92031 -30.1,-66.7575c-12.18781,-13.76 -22.38687,-21.6075 -26.445,-24.6175c1.76031,-1.31687 2.84875,-1.84094 5.6975,-4.8375c4.59563,-4.82406 9.5675,-11.59656 9.5675,-19.78v-1.075l-0.645,-0.9675c0,0 -3.34594,-4.01781 -9.675,-6.45v-19.35c0.02688,-1.06156 -0.44344,-2.06937 -1.26312,-2.74125c-0.80625,-0.67187 -1.89469,-0.92719 -2.92938,-0.69875c-1.59906,0.36281 -2.72781,1.80063 -2.6875,3.44v17.63c-0.88687,-0.08062 -1.84094,-0.1075 -2.795,-0.1075c-9.76906,0 -15.10375,4.515 -17.845,7.2025c-2.72781,-2.75469 -8.14312,-7.525 -17.845,-7.525c-0.9675,0 -1.89469,0.12094 -2.795,0.215v-17.415c0.04031,-0.99437 -0.36281,-1.94844 -1.075,-2.62031c-0.72562,-0.68531 -1.70656,-1.02125 -2.6875,-0.92719zM68.155,27.52c9.21813,0 15.1575,7.31 15.1575,7.31l2.6875,3.3325l2.6875,-3.3325c0,0 5.46906,-6.9875 15.1575,-6.9875c8.39844,0 11.73094,3.39969 12.7925,4.6225c-0.48375,4.89125 -3.60125,9.97063 -7.31,13.8675c-4.00437,4.20594 -8.0625,6.88 -8.0625,6.88l-4.1925,2.795l4.1925,2.9025c0,0 14.25719,10.03781 28.595,26.23c14.06906,15.88313 27.65438,37.57125 28.165,60.845c-0.08062,0.06719 -0.01344,0.02688 -0.1075,0.1075c-0.84656,0.71219 -2.31125,1.72 -4.6225,2.795c-4.21937,1.97531 -11.34125,4.04469 -22.6825,4.4075c-1.06156,-25.42375 -14.0825,-48.375 -14.0825,-48.375c-0.72562,-1.34375 -2.27094,-2.0425 -3.7625,-1.72c-1.10187,0.22844 -2.01562,0.9675 -2.4725,1.98875c-0.44344,1.03469 -0.36281,2.21719 0.215,3.17125c0,0 12.87313,23.09906 13.33,46.87c-1.08844,0.86 -3.30562,2.40531 -8.0625,4.515c-6.39625,2.83531 -16.16531,5.6975 -29.7775,5.6975c-13.61219,0 -23.38125,-2.86219 -29.7775,-5.6975c-4.75687,-2.10969 -6.97406,-3.655 -8.0625,-4.515c0.45688,-23.77094 13.33,-46.87 13.33,-46.87c0.71219,-1.16906 0.67188,-2.66062 -0.12094,-3.78937c-0.80625,-1.11531 -2.19031,-1.65281 -3.53406,-1.37063c-1.00781,0.18813 -1.86781,0.81969 -2.365,1.72c0,0 -13.02094,22.95125 -14.0825,48.375c-11.34125,-0.36281 -18.46312,-2.43219 -22.6825,-4.4075c-2.31125,-1.075 -3.77594,-2.08281 -4.6225,-2.795c-0.09406,-0.08062 -0.02687,-0.04031 -0.1075,-0.1075c0.51063,-23.28719 14.09594,-45.08281 28.165,-61.06c14.33781,-16.27281 28.595,-26.3375 28.595,-26.3375l4.1925,-2.9025l-4.1925,-2.795c0,0 -4.05812,-2.67406 -8.0625,-6.88c-3.70875,-3.89687 -6.82625,-8.97625 -7.31,-13.8675c0.90031,-0.9675 3.19813,-3.09062 7.6325,-4.085c0.1075,-0.02687 0.215,-0.06719 0.3225,-0.1075c1.41094,-0.29562 2.98313,-0.43 4.8375,-0.43z"></path></g></g></svg>