<svg version="1.1" xmlns="http://www.w3.org/2000/svg" xmlns:xlink="http://www.w3.org/1999/xlink" viewBox="0 0 172 172"><g fill="none" fill-rule="nonzero" stroke="none" stroke-width="1" stroke-linecap="butt" stroke-linejoin="miter" stroke-miterlimit="10" stroke-dasharray="" stroke-dashoffset="0" font-family="none" font-weight="none" font-size="none" text-anchor="none" style="mix-blend-mode: normal"><path d="M0,172v-172h172v172z" fill="none"></path><g><path d="M86,161.25c-35.475,0 -64.5,-29.025 -64.5,-64.5c0,-35.475 29.025,-64.5 64.5,-64.5c35.475,0 64.5,29.025 64.5,64.5c0,35.475 -29.025,64.5 -64.5,64.5zM86,46.58333c-27.59167,0 -50.16667,22.575 -50.16667,50.16667c0,27.59167 22.575,50.16667 50.16667,50.16667c27.59167,0 50.16667,-22.575 50.16667,-50.16667c0,-27.59167 -22.575,-50.16667 -50.16667,-50.16667z" fill="#ffca28"></path><path d="M60.91667,25.08333l14.33333,-10.75h21.5l14.33333,10.75l-21.5,21.5h-7.16667z" fill="#1976d2"></path><path d="M96.75,25.08333h14.33333l-21.5,21.5z" fill="#0d47a1"></path><path d="M60.91667,25.08333h14.33333v-10.75z" fill="#84ffff"></path><path d="M96.75,25.08333v-10.75h-21.5v10.75l7.16667,21.5h7.16667z" fill="#0091ea"></path><path d="M60.91667,25.08333h14.33333l7.16667,21.5z" fill="#00e5ff"></path><path d="M75.25,25.08333l10.75,-10.75l10.75,10.75z" fill="#00b0ff"></path><path d="M98.18333,48.01667c-3.94167,-0.71667 -7.88333,-1.43333 -12.18333,-1.43333h3.58333l12.18333,-12.18333c2.50833,0.71667 5.01667,1.43333 7.525,2.50833zM86,46.58333h-3.58333l-12.18333,-12.18333c-2.50833,0.71667 -5.01667,1.43333 -7.525,2.50833l11.46667,11.46667c3.58333,-1.075 7.525,-1.79167 11.825,-1.79167zM140.10833,97.10833c-0.35833,-6.09167 -1.79167,-10.75 -3.225,-15.05c-1.79167,-4.3 -3.58333,-7.525 -5.375,-10.39167c-1.79167,-2.50833 -3.58333,-4.3 -4.65833,-5.73333c-1.075,-1.075 -1.79167,-1.79167 -1.79167,-1.79167l-0.71667,0.35833c7.16667,8.6 11.825,20.06667 11.825,32.25c0,27.59167 -22.575,50.16667 -50.16667,50.16667c-27.59167,0 -50.16667,-22.575 -50.16667,-50.16667c0,-11.825 3.94167,-22.575 10.75,-31.175l-0.35833,-0.35833c0,0 -0.71667,0.71667 -1.79167,1.79167c-1.075,1.075 -2.86667,3.225 -4.65833,5.73333c-1.79167,2.86667 -3.58333,6.09167 -5.01667,10.39167c-0.71667,2.15 -1.43333,4.65833 -1.79167,7.16667c-0.35833,1.43333 -0.35833,2.86667 -0.71667,4.3c0,0.71667 0,1.43333 0,1.79167c0,0.71667 0,1.43333 0,2.15c-0.35833,5.73333 0.35833,12.18333 2.86667,18.275c2.15,6.45 5.73333,12.54167 10.75,18.275c5.01667,5.375 11.10833,10.39167 18.275,13.25833c1.79167,0.71667 3.58333,1.43333 5.375,2.15c1.79167,0.35833 3.94167,1.075 5.73333,1.43333c2.15,0.35833 4.3,0.71667 6.09167,0.71667h2.50833h1.43333h0.35833v0h0.35833v0h0.71667c7.88333,0 15.76667,-2.15 22.93333,-5.375c7.16667,-3.225 13.25833,-8.24167 17.91667,-13.975c4.65833,-5.73333 8.24167,-12.18333 10.03333,-18.275l0.71667,-2.50833l0.35833,-2.50833c0.35833,-1.43333 0.71667,-3.225 0.71667,-4.65833c0,-1.43333 0.35833,-3.225 0.35833,-4.65833c0.35833,-0.71667 0.35833,-2.15 0.35833,-3.58333z" fill="#ffb300"></path></g></g></svg>