<svg version="1.1" xmlns="http://www.w3.org/2000/svg" xmlns:xlink="http://www.w3.org/1999/xlink" viewBox="0 0 172 172"><g fill="none" fill-rule="nonzero" stroke="none" stroke-width="1" stroke-linecap="butt" stroke-linejoin="miter" stroke-miterlimit="10" stroke-dasharray="" stroke-dashoffset="0" font-family="none" font-weight="none" font-size="none" text-anchor="none" style="mix-blend-mode: normal"><path d="M0,172v-172h172v172z" fill="none"></path><g><path d="M125.41667,10.75l-84.63833,15.6735c-7.29567,1.35092 -13.00392,7.05917 -14.35483,14.35483l-15.6735,84.63833z" fill="#ffcc80"></path><path d="M161.25,46.58333l-35.83333,-35.83333l-114.66667,114.66667l35.83333,35.83333z" fill="#ffb74d"></path><path d="M28.66667,86c-1.97902,0 -3.58333,1.60431 -3.58333,3.58333c0,1.97902 1.60431,3.58333 3.58333,3.58333c1.97902,0 3.58333,-1.60431 3.58333,-3.58333c0,-1.97902 -1.60431,-3.58333 -3.58333,-3.58333zM35.83333,64.5c-1.97902,0 -3.58333,1.60431 -3.58333,3.58333c0,1.97902 1.60431,3.58333 3.58333,3.58333c1.97902,0 3.58333,-1.60431 3.58333,-3.58333c0,-1.97902 -1.60431,-3.58333 -3.58333,-3.58333zM50.16667,57.33333c-1.97902,0 -3.58333,1.60431 -3.58333,3.58333c0,1.97902 1.60431,3.58333 3.58333,3.58333c1.97902,0 3.58333,-1.60431 3.58333,-3.58333c0,-1.97902 -1.60431,-3.58333 -3.58333,-3.58333zM64.5,46.58333c-1.97902,0 -3.58333,1.60431 -3.58333,3.58333c0,1.97902 1.60431,3.58333 3.58333,3.58333c1.97902,0 3.58333,-1.60431 3.58333,-3.58333c0,-1.97902 -1.60431,-3.58333 -3.58333,-3.58333zM89.58333,25.08333c-1.97902,0 -3.58333,1.60431 -3.58333,3.58333c0,1.97902 1.60431,3.58333 3.58333,3.58333c1.97902,0 3.58333,-1.60431 3.58333,-3.58333c0,-1.97902 -1.60431,-3.58333 -3.58333,-3.58333zM43,39.41667c-1.97902,0 -3.58333,1.60431 -3.58333,3.58333c0,1.97902 1.60431,3.58333 3.58333,3.58333c1.97902,0 3.58333,-1.60431 3.58333,-3.58333c0,-1.97902 -1.60431,-3.58333 -3.58333,-3.58333zM64.5,32.25c-1.97902,0 -3.58333,1.60431 -3.58333,3.58333c0,1.97902 1.60431,3.58333 3.58333,3.58333c1.97902,0 3.58333,-1.60431 3.58333,-3.58333c0,-1.97902 -1.60431,-3.58333 -3.58333,-3.58333z" fill="#ffa726"></path><path d="M34.04167,148.70833c7.64325,-7.64325 15.29008,-7.64325 22.93333,-15.29008c7.64325,-7.64325 7.55367,-15.19692 15.29008,-22.93333c7.64325,-7.64325 13.37658,-5.73333 22.93333,-15.29008c9.55675,-9.55675 7.64325,-15.29008 15.29008,-22.93333c7.73642,-7.73642 15.29008,-7.64325 22.93333,-15.29008c7.64325,-7.64325 7.64325,-15.29008 15.29008,-22.93333l-14.33333,-14.33333c-7.64325,7.64325 -7.64325,15.29008 -15.29008,22.93333c-7.64683,7.64325 -15.19692,7.55367 -22.93333,15.29008c-7.64325,7.64325 -5.73333,13.37658 -15.29008,22.93333c-9.55675,9.55675 -15.29008,7.64325 -22.93333,15.29008c-7.73642,7.73642 -7.64325,15.29008 -15.29008,22.93333c-7.64683,7.64325 -15.29008,7.64683 -22.93333,15.29008z" fill="#fff3e0"></path><path d="M22.24175,136.90842l-5.06683,-5.06683c4.2355,-4.2355 8.385,-6.31025 12.39833,-8.31692c3.66217,-1.83467 7.12367,-3.56183 10.53142,-6.96958c3.397,-3.397 5.10983,-6.82983 6.91942,-10.46333c2.00308,-4.0205 4.07783,-8.17717 8.36708,-12.47c4.05633,-4.05633 7.6755,-5.7405 11.17642,-7.36375c3.68367,-1.71642 7.16308,-3.32892 11.7605,-7.92633c4.59383,-4.59383 6.20992,-8.07325 7.92275,-11.75333c1.62683,-3.5045 3.30742,-7.12008 7.36733,-11.17642c4.29283,-4.29283 8.4495,-6.364 12.47,-8.37067c3.6335,-1.81317 7.06275,-3.52242 10.45975,-6.91942c3.41133,-3.41133 5.14208,-6.87283 6.97317,-10.535c2.00667,-4.01333 4.08142,-8.16283 8.31692,-12.39833l5.06683,5.06683c-3.41133,3.41133 -5.14208,6.87283 -6.97317,10.535c-2.00667,4.01333 -4.08142,8.16283 -8.31692,12.39833c-4.22117,4.22475 -8.34558,6.278 -12.33025,8.26675c-3.66933,1.8275 -7.13442,3.55467 -10.60308,7.02333c-3.1605,3.1605 -4.44692,5.92683 -5.934,9.13033c-1.80958,3.89508 -3.86283,8.30975 -9.3525,13.803c-5.49325,5.49325 -9.9115,7.54292 -13.80658,9.35608c-3.2035,1.48708 -5.96983,2.76992 -9.12675,5.93042c-3.46508,3.46867 -5.19225,6.93375 -7.01975,10.5995c-1.98875,3.98825 -4.042,8.11267 -8.26675,12.33383c-4.23192,4.23192 -8.38142,6.30667 -12.39475,8.31333c-3.66575,1.8275 -7.12725,3.56183 -10.53858,6.97317z" fill="#c74343"></path><path d="M36.57508,151.24175l-5.06683,-5.06683c4.2355,-4.2355 8.385,-6.31025 12.39833,-8.31692c3.66217,-1.83467 7.12367,-3.56183 10.53142,-6.96958c3.397,-3.397 5.10983,-6.82983 6.91942,-10.46333c2.00308,-4.0205 4.07783,-8.17717 8.36708,-12.47c4.05633,-4.05633 7.6755,-5.7405 11.17642,-7.36375c3.68367,-1.71642 7.16308,-3.32892 11.7605,-7.92633c4.59383,-4.59383 6.20992,-8.07325 7.92275,-11.75333c1.62683,-3.5045 3.30742,-7.12008 7.36733,-11.17642c4.29283,-4.29283 8.4495,-6.364 12.47,-8.37067c3.6335,-1.81317 7.06275,-3.52242 10.45975,-6.91942c3.41133,-3.41133 5.14208,-6.87283 6.97317,-10.535c2.00667,-4.01333 4.08142,-8.16283 8.31692,-12.39833l5.06683,5.06683c-3.41133,3.41133 -5.14208,6.87283 -6.97317,10.535c-2.00667,4.01333 -4.08142,8.16283 -8.31692,12.39833c-4.22117,4.22475 -8.34558,6.278 -12.33025,8.26675c-3.66933,1.8275 -7.13442,3.55467 -10.60308,7.02333c-3.1605,3.1605 -4.44692,5.92683 -5.934,9.13033c-1.80958,3.89508 -3.86283,8.30975 -9.3525,13.803c-5.49325,5.49325 -9.9115,7.54292 -13.80658,9.35608c-3.2035,1.48708 -5.96983,2.76992 -9.12675,5.93042c-3.46508,3.46867 -5.19225,6.93375 -7.01975,10.5995c-1.98875,3.98825 -4.042,8.11267 -8.26675,12.33383c-4.23192,4.23192 -8.38142,6.30667 -12.39475,8.31333c-3.66575,1.8275 -7.12725,3.56183 -10.53858,6.97317z" fill="#689f38"></path></g></g></svg>