<svg version="1.1" xmlns="http://www.w3.org/2000/svg" xmlns:xlink="http://www.w3.org/1999/xlink" viewBox="0 0 172 172"><g fill="none" fill-rule="nonzero" stroke="none" stroke-width="1" stroke-linecap="butt" stroke-linejoin="miter" stroke-miterlimit="10" stroke-dasharray="" stroke-dashoffset="0" font-family="none" font-weight="none" font-size="none" text-anchor="none" style="mix-blend-mode: normal"><path d="M0,172v-172h172v172z" fill="none"></path><g fill="#b0b3b8"><path d="M114.595,0c-0.67187,0.08063 -1.29,0.28219 -1.935,0.5375l-87.3975,35.475c-2.20375,0.88688 -3.77594,2.80844 -4.1925,5.16l-14.0825,80.0875c-0.38969,2.21719 0.33594,4.43438 1.935,6.02l43,42.6775c2.80844,2.795 7.48469,2.66063 10.105,-0.3225l101.3725,-115.455c2.39188,-2.71437 2.23063,-6.92031 -0.3225,-9.46l-42.8925,-42.6775c-0.98094,-0.98094 -2.23062,-1.66625 -3.5475,-1.935c-0.65844,-0.13437 -1.37062,-0.18812 -2.0425,-0.1075zM117.9275,9.46l10.965,10.8575c-2.33812,5.07938 -2.20375,9.58094 -3.87,11.7175c-1.35719,1.74688 -4.515,2.9025 -8.0625,5.2675c-6.9875,4.64938 -10.15875,11.7175 -14.835,15.3725c-5.20031,4.07156 -13.975,5.25406 -20.855,11.5025c-5.75125,5.22719 -7.96844,11.78469 -10.105,17.63c-2.13656,5.84531 -4.11187,10.88438 -8.4925,14.62c-2.88906,2.45906 -8.47906,4.46125 -13.0075,7.955c-5.75125,4.44781 -8.35812,10.99188 -10.2125,16.555c-0.92719,2.78156 -1.69312,5.38844 -2.365,7.31c-0.67187,1.92156 -1.42437,3.14438 -1.3975,3.1175c-1.505,1.31688 -4.85094,2.15 -7.8475,5.0525l-11.5025,-11.395zM108.575,9.5675l-93.74,106.855l13.0075,-74.0675zM134.375,25.8l8.7075,8.7075c-10.19906,6.10063 -15.95031,13.115 -19.995,19.565c-4.6225,7.37719 -7.22937,13.55844 -12.9,18.3825c-2.365,2.00219 -8.33125,6.3425 -14.0825,10.75c-5.75125,4.4075 -11.12625,8.47906 -14.2975,12.47c-3.60125,4.54188 -5.63031,10.44094 -7.4175,15.8025c-0.90031,2.6875 -1.67969,5.22719 -2.365,7.2025c-0.68531,1.97531 -1.505,3.60125 -1.3975,3.44c-6.16781,8.84188 -10.535,10.02438 -16.125,12.9c-4.64937,2.39188 -9.64812,6.45 -13.115,14.835l-8.6,-8.6c1.49156,-1.16906 4.39406,-2.08281 7.4175,-4.73c1.96188,-1.70656 2.64719,-3.7625 3.44,-6.02c0.79281,-2.2575 1.3975,-4.8375 2.2575,-7.4175c1.72,-5.14656 4.15219,-10.30656 8.0625,-13.33c3.10406,-2.40531 8.66719,-4.27312 13.115,-8.0625c5.92594,-5.0525 8.385,-11.65031 10.535,-17.5225c2.15,-5.87219 4.00438,-11.05906 8.2775,-14.9425c4.77031,-4.32687 13.2225,-5.54969 20.425,-11.18c6.47688,-5.06594 9.70188,-11.85187 14.5125,-15.05c2.44563,-1.62594 6.62469,-2.84875 9.675,-6.7725c2.795,-3.60125 3.25188,-7.48469 3.87,-10.4275zM75.68,27.52c-1.89469,0 -3.44,1.54531 -3.44,3.44c0,1.89469 1.54531,3.44 3.44,3.44c1.89469,0 3.44,-1.54531 3.44,-3.44c0,-1.89469 -1.54531,-3.44 -3.44,-3.44zM55.04,37.84c-1.89469,0 -3.44,1.54531 -3.44,3.44c0,1.89469 1.54531,3.44 3.44,3.44c1.89469,0 3.44,-1.54531 3.44,-3.44c0,-1.89469 -1.54531,-3.44 -3.44,-3.44zM150.715,42.0325l7.525,7.525l-101.3725,115.5625c-0.05375,0.05375 -0.05375,0.05375 -0.1075,0l-7.31,-7.31c2.76813,-10.18562 5.09281,-11.13969 9.7825,-13.545c4.74344,-2.43219 12.48344,-5.72437 19.8875,-16.34c1.35719,-1.94844 1.92156,-3.60125 2.6875,-5.805c0.76594,-2.20375 1.51844,-4.75687 2.365,-7.31c1.70656,-5.10625 3.93719,-10.46781 5.6975,-12.685c1.31688,-1.65281 6.96063,-6.45 12.5775,-10.75c5.61688,-4.3 11.26063,-8.39844 14.405,-11.0725c7.65938,-6.50375 10.92469,-14.16312 15.05,-20.7475c3.91031,-6.24844 8.51938,-11.99969 18.8125,-17.5225zM37.84,48.16c-1.89469,0 -3.44,1.54531 -3.44,3.44c0,1.89469 1.54531,3.44 3.44,3.44c1.89469,0 3.44,-1.54531 3.44,-3.44c0,-1.89469 -1.54531,-3.44 -3.44,-3.44zM51.6,55.04c-1.89469,0 -3.44,1.54531 -3.44,3.44c0,1.89469 1.54531,3.44 3.44,3.44c1.89469,0 3.44,-1.54531 3.44,-3.44c0,-1.89469 -1.54531,-3.44 -3.44,-3.44zM30.96,75.68c-1.89469,0 -3.44,1.54531 -3.44,3.44c0,1.89469 1.54531,3.44 3.44,3.44c1.89469,0 3.44,-1.54531 3.44,-3.44c0,-1.89469 -1.54531,-3.44 -3.44,-3.44z"></path></g></g></svg>