<svg version="1.1" xmlns="http://www.w3.org/2000/svg" xmlns:xlink="http://www.w3.org/1999/xlink" viewBox="0 0 172 172"><g fill="none" fill-rule="nonzero" stroke="none" stroke-width="none" stroke-linecap="none" stroke-linejoin="none" stroke-miterlimit="10" stroke-dasharray="" stroke-dashoffset="0" font-family="none" font-weight="none" font-size="none" text-anchor="none" style="mix-blend-mode: normal"><path d="M0,172v-172h172v172z" fill="none" stroke="none" stroke-width="1" stroke-linecap="butt" stroke-linejoin="miter"></path><g><path d="M86,46.58333v-18.09942c0,-5.83725 4.73,-10.56725 10.56725,-10.56725h0.3655c5.83725,0 10.56725,4.73 10.56725,10.56725v0" fill="none" stroke="#3f51b5" stroke-width="7.16667" stroke-linecap="butt" stroke-linejoin="miter"></path><path d="M157.66667,103.87725h-7.16667" fill="none" stroke="#3f51b5" stroke-width="7.16667" stroke-linecap="butt" stroke-linejoin="miter"></path><path d="M127.84617,78.79392h7.84033c8.16642,0 14.8135,6.6435 14.8135,14.8135v20.53967c0,8.16642 -6.6435,14.8135 -14.8135,14.8135h-7.84033z" fill="#7986cb" stroke="none" stroke-width="1" stroke-linecap="butt" stroke-linejoin="miter"></path><path d="M14.33333,103.87725h7.16667" fill="none" stroke="#3f51b5" stroke-width="7.16667" stroke-linecap="butt" stroke-linejoin="miter"></path><path d="M44.15383,78.79392h-7.84033c-8.17,0 -14.8135,6.64708 -14.8135,14.8135v20.53967c0,8.16642 6.6435,14.8135 14.8135,14.8135h7.84033z" fill="#7986cb" stroke="none" stroke-width="1" stroke-linecap="butt" stroke-linejoin="miter"></path><path d="M90.89842,39.41667h-9.79683c-9.15542,0 -16.60158,7.44617 -16.60158,16.60158c0,2.70183 2.19658,4.89842 4.89842,4.89842h33.20317c2.70183,0 4.89842,-2.19658 4.89842,-4.89842c0,-9.15542 -7.44617,-16.60158 -16.60158,-16.60158z" fill="#7986cb" stroke="none" stroke-width="1" stroke-linecap="butt" stroke-linejoin="miter"></path><path d="M118.18192,50.16667h-64.36383c-11.89308,0 -21.56808,9.63558 -21.56808,21.4785v60.95608c0,11.8465 9.675,21.48208 21.56808,21.48208h64.36383c11.89308,0 21.56808,-9.63558 21.56808,-21.4785v-60.95967c0,-11.84292 -9.675,-21.4785 -21.56808,-21.4785z" fill="#c5cae9" stroke="none" stroke-width="1" stroke-linecap="butt" stroke-linejoin="miter"></path><circle cx="30" cy="9" transform="scale(3.58333,3.58333)" r="2" fill="#4fc3f7" stroke="none" stroke-width="1" stroke-linecap="butt" stroke-linejoin="miter"></circle><path d="M53.75,134.7835l10.73208,-7.16667l10.74283,7.16667l10.74642,-7.16667l10.74642,7.16667l10.76792,-7.16667l10.76433,7.16667" fill="none" stroke="#3949ab" stroke-width="7.16667" stroke-linecap="butt" stroke-linejoin="miter"></path><path d="M100.33333,89.58333c0,-5.93706 4.81294,-10.75 10.75,-10.75c5.93706,0 10.75,4.81294 10.75,10.75c0,5.93706 -4.81294,10.75 -10.75,10.75c-5.93706,0 -10.75,-4.81294 -10.75,-10.75z" fill="#4fc3f7" stroke="#3949ab" stroke-width="7.16667" stroke-linecap="round" stroke-linejoin="round"></path><path d="M71.66667,78.83333l-21.5,21.5" fill="none" stroke="#3949ab" stroke-width="7.16667" stroke-linecap="butt" stroke-linejoin="miter"></path><path d="M50.16667,78.83333l21.5,21.5" fill="none" stroke="#3949ab" stroke-width="7.16667" stroke-linecap="butt" stroke-linejoin="miter"></path></g></g></svg>