<svg version="1.1" xmlns="http://www.w3.org/2000/svg" xmlns:xlink="http://www.w3.org/1999/xlink" viewBox="0 0 172 172"><g fill="none" fill-rule="nonzero" stroke="none" stroke-width="1" stroke-linecap="butt" stroke-linejoin="miter" stroke-miterlimit="10" stroke-dasharray="" stroke-dashoffset="0" font-family="none" font-weight="none" font-size="none" text-anchor="none" style="mix-blend-mode: normal"><path d="M0,172v-172h172v172z" fill="none"></path><g><path d="M51.95833,42.74917v5.38217c0,0.989 0.80267,1.79167 1.79167,1.79167c0.989,0 1.79167,-0.80267 1.79167,-1.79167v-5.38217c-0.57692,0.14692 -1.16817,0.25083 -1.79167,0.25083c-0.6235,0 -1.21475,-0.10392 -1.79167,-0.25083zM116.45833,42.74917v5.38217c0,0.989 0.80625,1.79167 1.79167,1.79167c0.98542,0 1.79167,-0.80267 1.79167,-1.79167v-5.38217c-0.57692,0.14692 -1.16817,0.25083 -1.79167,0.25083c-0.6235,0 -1.21475,-0.10392 -1.79167,-0.25083zM84.20833,42.74917v5.38217c0,0.989 0.80267,1.79167 1.79167,1.79167c0.989,0 1.79167,-0.80267 1.79167,-1.79167v-5.38217c-0.57692,0.14692 -1.16817,0.25083 -1.79167,0.25083c-0.6235,0 -1.21475,-0.10392 -1.79167,-0.25083z" fill="#795548"></path><path d="M60.91667,35.83333c0,-3.956 -7.16667,-14.33333 -7.16667,-14.33333c0,0 -7.16667,10.37733 -7.16667,14.33333c0,3.33967 2.28975,6.11317 5.375,6.91583v-3.3325c0,-0.98542 0.80267,-1.79167 1.79167,-1.79167c0.989,0 1.79167,0.80625 1.79167,1.79167v3.3325c3.08525,-0.80267 5.375,-3.57617 5.375,-6.91583zM125.41667,35.83333c0,-3.956 -7.16667,-14.33333 -7.16667,-14.33333c0,0 -7.16667,10.37733 -7.16667,14.33333c0,3.33967 2.28975,6.11317 5.375,6.91583v-3.3325c0,-0.98542 0.80625,-1.79167 1.79167,-1.79167c0.98542,0 1.79167,0.80625 1.79167,1.79167v3.3325c3.08525,-0.80267 5.375,-3.57617 5.375,-6.91583zM93.16667,35.83333c0,-3.956 -7.16667,-14.33333 -7.16667,-14.33333c0,0 -7.16667,10.37733 -7.16667,14.33333c0,3.33967 2.28975,6.11317 5.375,6.91583v-3.3325c0,-0.98542 0.80267,-1.79167 1.79167,-1.79167c0.989,0 1.79167,0.80625 1.79167,1.79167v3.3325c3.08525,-0.80267 5.375,-3.57617 5.375,-6.91583z" fill="#ffb300"></path><path d="M53.75,35.83333c-1.97902,0 -3.58333,1.60431 -3.58333,3.58333c0,1.97902 1.60431,3.58333 3.58333,3.58333c1.97902,0 3.58333,-1.60431 3.58333,-3.58333c0,-1.97902 -1.60431,-3.58333 -3.58333,-3.58333zM118.25,35.83333c-1.97902,0 -3.58333,1.60431 -3.58333,3.58333c0,1.97902 1.60431,3.58333 3.58333,3.58333c1.97902,0 3.58333,-1.60431 3.58333,-3.58333c0,-1.97902 -1.60431,-3.58333 -3.58333,-3.58333zM86,35.83333c-1.97902,0 -3.58333,1.60431 -3.58333,3.58333c0,1.97902 1.60431,3.58333 3.58333,3.58333c1.97902,0 3.58333,-1.60431 3.58333,-3.58333c0,-1.97902 -1.60431,-3.58333 -3.58333,-3.58333z" fill="#ff9800"></path><g fill="#e65100"><path d="M53.75,37.625c-0.989,0 -1.79167,0.80625 -1.79167,1.79167v3.3325c0.57692,0.14692 1.16817,0.25083 1.79167,0.25083c0.6235,0 1.21475,-0.10392 1.79167,-0.25083v-3.3325c0,-0.98542 -0.80267,-1.79167 -1.79167,-1.79167zM118.25,37.625c-0.98542,0 -1.79167,0.80625 -1.79167,1.79167v3.3325c0.57692,0.14692 1.16817,0.25083 1.79167,0.25083c0.6235,0 1.21475,-0.10392 1.79167,-0.25083v-3.3325c0,-0.98542 -0.80625,-1.79167 -1.79167,-1.79167zM86,37.625c-0.989,0 -1.79167,0.80625 -1.79167,1.79167v3.3325c0.57692,0.14692 1.16817,0.25083 1.79167,0.25083c0.6235,0 1.21475,-0.10392 1.79167,-0.25083v-3.3325c0,-0.98542 -0.80267,-1.79167 -1.79167,-1.79167z"></path></g><g fill="#f8bbd0"><path d="M60.91667,100.33333c0,1.98158 -1.60175,3.58333 -3.58333,3.58333h-7.16667c-1.978,0 -3.58333,-1.60175 -3.58333,-3.58333v-50.16667c0,-1.98158 1.60533,-3.58333 3.58333,-3.58333h7.16667c1.98158,0 3.58333,1.60175 3.58333,3.58333zM125.41667,99.95708c0,1.98158 -1.60175,3.58333 -3.58333,3.58333h-7.16667c-1.978,0 -3.58333,-1.60175 -3.58333,-3.58333v-50.16667c0,-1.98158 1.60533,-3.58333 3.58333,-3.58333h7.16667c1.98158,0 3.58333,1.60175 3.58333,3.58333zM93.16667,100.33333c0,1.98158 -1.60175,3.58333 -3.58333,3.58333h-7.16667c-1.978,0 -3.58333,-1.60175 -3.58333,-3.58333v-50.16667c0,-1.98158 1.60533,-3.58333 3.58333,-3.58333h7.16667c1.98158,0 3.58333,1.60175 3.58333,3.58333z"></path></g><path d="M107.25275,115.76317c-16.86317,12.64917 -28.93183,12.74592 -42.74917,0.22575c-12.61692,11.46667 -23.51742,12.4485 -35.83692,2.97775v24.36667h114.66667v-24.35233c-5.5685,4.27492 -10.84675,6.43567 -16.125,6.43567c-6.47508,0 -12.94658,-3.21783 -19.95558,-9.6535z" fill="#632d21"></path><path d="M132.58333,93.16667h-93.16667c-5.93758,0 -10.75,4.816 -10.75,10.75v7.11292c0,-0.47658 0.07883,-0.93167 0.13975,-1.39392c12.32308,11.81425 20.56117,11.45233 33.16017,-1.13592l2.53342,-2.53342l2.53342,2.53342c13.06483,13.06483 21.64692,13.00392 38.227,-0.26517l2.50475,-2.00308l2.26825,2.26825c12.599,12.59183 20.8335,12.93942 33.16017,1.13233c0.06092,0.46583 0.13975,0.92092 0.13975,1.3975v-7.11292c0,-5.934 -4.81242,-10.75 -10.75,-10.75z" fill="#ff4081"></path><path d="M110.03342,108.49975l-2.26825,-2.26825l-2.50475,2.00308c-16.58008,13.26908 -25.15858,13.33 -38.227,0.26517l-2.53342,-2.53342l-2.53342,2.53342c-12.599,12.59183 -20.8335,12.95017 -33.16017,1.13592c-0.06092,0.46583 -0.13975,0.92092 -0.13975,1.39392v7.93708c12.3195,9.47075 23.22,8.48892 35.83692,-2.98133c13.81375,12.52017 25.886,12.427 42.74917,-0.22575c7.009,6.43925 13.4805,9.65708 19.95558,9.65708c5.27825,0 10.5565,-2.16075 16.125,-6.43567v-7.95142c0,-0.48017 -0.07883,-0.93525 -0.13975,-1.3975c-12.32667,11.81067 -20.56117,11.4595 -33.16017,-1.13233z" fill="#fce4ec"></path><path d="M21.5,139.75v3.58333c0,3.956 3.21067,7.16667 7.16667,7.16667h114.66667c3.956,0 7.16667,-3.21067 7.16667,-7.16667v-3.58333z" fill="#9fa8da"></path></g></g></svg>