<svg version="1.1" xmlns="http://www.w3.org/2000/svg" xmlns:xlink="http://www.w3.org/1999/xlink" viewBox="0 0 172 172"><g fill="none" fill-rule="nonzero" stroke="none" stroke-width="1" stroke-linecap="butt" stroke-linejoin="miter" stroke-miterlimit="10" stroke-dasharray="" stroke-dashoffset="0" font-family="none" font-weight="none" font-size="none" text-anchor="none" style="mix-blend-mode: normal"><path d="M0,172v-172h172v172z" fill="none"></path><g fill="#b0b3b8"><path d="M86,4.95172l-2.64047,3.16453c0,0 -3.53621,4.22468 -7.08828,9.46c-1.77604,2.61766 -3.56536,5.49509 -4.96515,8.33125c-1.3998,2.83616 -2.5061,5.55458 -2.5061,8.4925c0,8.28061 5.93546,15.24453 13.76,16.85063v3.78937h-3.44c-5.6587,0 -10.32,4.6613 -10.32,10.32v30.96h-30.96c-11.35759,0 -20.64,9.28241 -20.64,20.64v3.09063c-0.02062,0.21675 -0.02062,0.43497 0,0.65172v23.77765h-10.32v3.44c0,9.45834 7.74166,17.2 17.2,17.2h123.84c9.45834,0 17.2,-7.74166 17.2,-17.2v-3.44h-10.32v-23.56937c0.07964,-0.4218 0.07964,-0.85477 0,-1.27656v-2.67406c0,-11.35759 -9.28241,-20.64 -20.64,-20.64h-30.96v-30.96c0,-5.6587 -4.6613,-10.32 -10.32,-10.32h-3.44v-3.78937c7.82454,-1.6061 13.76,-8.57002 13.76,-16.85063c0,-2.93792 -1.1063,-5.65634 -2.5061,-8.4925c-1.39979,-2.83616 -3.18912,-5.71359 -4.96515,-8.33125c-3.55208,-5.23532 -7.08828,-9.46 -7.08828,-9.46zM86,16.05109c1.28191,1.62362 2.02012,2.42428 4.03125,5.38844c1.66396,2.45247 3.31464,5.12032 4.49485,7.51156c1.1802,2.39124 1.7939,4.58734 1.7939,5.44891c0,4.52308 -2.86526,8.28617 -6.88,9.69515v-2.81515c0.01273,-0.92983 -0.35149,-1.82522 -1.00967,-2.48214c-0.65819,-0.65692 -1.55427,-1.01942 -2.48408,-1.00489c-1.89722,0.02966 -3.41223,1.58976 -3.38625,3.48703v2.81515c-4.01474,-1.40899 -6.88,-5.17207 -6.88,-9.69515c0,-0.86156 0.6137,-3.05766 1.7939,-5.44891c1.18021,-2.39124 2.83088,-5.05909 4.49485,-7.51156c2.01113,-2.96416 2.74934,-3.76482 4.03125,-5.38844zM79.12,61.92h6.30219c0.37149,0.0614 0.75054,0.0614 1.12203,0h6.33578c1.9437,0 3.44,1.4963 3.44,3.44v30.96h-20.64v-30.96c0,-1.9437 1.4963,-3.44 3.44,-3.44zM37.84,103.2h96.32c7.63809,0 13.76,6.12191 13.76,13.76v2.47922c-0.91442,1.55404 -5.09369,7.84078 -13.76,7.84078c-9.82556,0 -18.0264,-9.11062 -18.0264,-9.11063c-0.62254,-0.72897 -1.52099,-1.16514 -2.47885,-1.2034c-0.95785,-0.03826 -1.88824,0.32485 -2.56694,1.00184c0,-0.00001 -9.26381,9.31219 -25.08781,9.31219c-15.824,0 -25.08781,-9.31219 -25.08781,-9.31219c-0.6787,-0.67699 -1.60908,-1.0401 -2.56694,-1.00184c-0.95785,0.03826 -1.85631,0.47443 -2.47885,1.2034c0,0.00001 -8.20085,9.11063 -18.0264,9.11063c-8.66631,0 -12.84558,-6.28674 -13.76,-7.84078v-2.47922c0,-7.63809 6.12191,-13.76 13.76,-13.76zM58.74203,124.7336c3.08345,2.63546 11.80436,9.4264 27.25797,9.4264c15.45361,0 24.17451,-6.79095 27.25797,-9.4264c2.67572,2.8111 9.59699,9.4264 20.90203,9.4264c5.96496,0 10.47217,-2.28128 13.76,-4.85765v15.17765h-123.84v-15.17765c3.28783,2.57637 7.79504,4.85765 13.76,4.85765c11.30504,0 18.22631,-6.61531 20.90203,-9.4264zM15.17766,151.36h141.64469c-1.50358,3.82688 -4.51341,6.88 -8.90235,6.88h-123.84c-4.38893,0 -7.39876,-3.05312 -8.90234,-6.88z"></path></g></g></svg>