<svg version="1.1" xmlns="http://www.w3.org/2000/svg" xmlns:xlink="http://www.w3.org/1999/xlink" viewBox="0 0 172 172"><g fill="none" fill-rule="nonzero" stroke="none" stroke-width="1" stroke-linecap="butt" stroke-linejoin="miter" stroke-miterlimit="10" stroke-dasharray="" stroke-dashoffset="0" font-family="none" font-weight="none" font-size="none" text-anchor="none" style="mix-blend-mode: normal"><path d="M0,172v-172h172v172z" fill="none"></path><g><path d="M86,71.66667l-53.75,71.66667c0,0 17.91667,14.33333 53.75,14.33333c35.83333,0 53.75,-14.33333 53.75,-14.33333z" fill="#388e3c"></path><path d="M86,57.33333l-43,53.75c0,0 14.33333,10.75 43,10.75c28.66667,0 43,-10.75 43,-10.75z" fill="#388e3c"></path><path d="M86,39.41667l-32.25,43c0,0 10.75,7.16667 32.25,7.16667c21.5,0 32.25,-7.16667 32.25,-7.16667z" fill="#388e3c"></path><path d="M86,14.33333l5.97342,11.10117l11.94325,1.70567l-8.5355,8.53192l1.72,12.80683l-11.10117,-5.97342l-11.10117,5.97342l1.72358,-12.80683l-8.53908,-8.53192l11.94325,-1.70567z" fill="#ffca28"></path><g fill="#1b5e20"><path d="M123.72533,121.9695l-4.43975,-5.92325c-7.14875,2.82008 -18.21767,5.78708 -33.28558,5.78708c-15.0715,0 -26.13683,-2.967 -33.28558,-5.78708l-4.43975,5.92325c7.83317,3.32533 20.43575,7.0305 37.72533,7.0305c17.28958,0 29.89217,-3.70517 37.72533,-7.0305zM86,89.58333c-10.11933,0 -17.82708,-1.58742 -23.18417,-3.27158l-4.773,5.96625c6.02358,2.18942 15.28292,4.472 27.95717,4.472c12.67425,0 21.93358,-2.28258 27.95717,-4.472l-4.773,-5.96625c-5.3535,1.68417 -13.06483,3.27158 -23.18417,3.27158zM86,42.5055l-3.88433,2.09267l-10.234,13.64533l6.41417,-3.45075l7.70417,-4.1495l7.70417,4.1495l6.41417,3.45075l-10.234,-13.64533z"></path></g><g fill="#18ffff"><path d="M80.625,60.91667c-2.96853,0 -5.375,2.40647 -5.375,5.375c0,2.96853 2.40647,5.375 5.375,5.375c2.96853,0 5.375,-2.40647 5.375,-5.375c0,-2.96853 -2.40647,-5.375 -5.375,-5.375zM96.75,71.66667c-1.97902,0 -3.58333,1.60431 -3.58333,3.58333c0,1.97902 1.60431,3.58333 3.58333,3.58333c1.97902,0 3.58333,-1.60431 3.58333,-3.58333c0,-1.97902 -1.60431,-3.58333 -3.58333,-3.58333zM68.08333,100.33333c-1.97902,0 -3.58333,1.60431 -3.58333,3.58333c0,1.97902 1.60431,3.58333 3.58333,3.58333c1.97902,0 3.58333,-1.60431 3.58333,-3.58333c0,-1.97902 -1.60431,-3.58333 -3.58333,-3.58333zM82.41667,111.08333c-1.97902,0 -3.58333,1.60431 -3.58333,3.58333c0,1.97902 1.60431,3.58333 3.58333,3.58333c1.97902,0 3.58333,-1.60431 3.58333,-3.58333c0,-1.97902 -1.60431,-3.58333 -3.58333,-3.58333zM86,143.33333c-1.97902,0 -3.58333,1.60431 -3.58333,3.58333c0,1.97902 1.60431,3.58333 3.58333,3.58333c1.97902,0 3.58333,-1.60431 3.58333,-3.58333c0,-1.97902 -1.60431,-3.58333 -3.58333,-3.58333zM116.45833,136.16667c-2.96853,0 -5.375,2.40647 -5.375,5.375c0,2.96853 2.40647,5.375 5.375,5.375c2.96853,0 5.375,-2.40647 5.375,-5.375c0,-2.96853 -2.40647,-5.375 -5.375,-5.375zM100.33333,102.125c-2.96853,0 -5.375,2.40647 -5.375,5.375c0,2.96853 2.40647,5.375 5.375,5.375c2.96853,0 5.375,-2.40647 5.375,-5.375c0,-2.96853 -2.40647,-5.375 -5.375,-5.375zM62.70833,134.375c-2.96853,0 -5.375,2.40647 -5.375,5.375c0,2.96853 2.40647,5.375 5.375,5.375c2.96853,0 5.375,-2.40647 5.375,-5.375c0,-2.96853 -2.40647,-5.375 -5.375,-5.375z"></path></g></g></g></svg>