<svg version="1.1" xmlns="http://www.w3.org/2000/svg" xmlns:xlink="http://www.w3.org/1999/xlink" viewBox="0 0 172 172"><g fill="none" fill-rule="nonzero" stroke="none" stroke-width="1" stroke-linecap="butt" stroke-linejoin="miter" stroke-miterlimit="10" stroke-dasharray="" stroke-dashoffset="0" font-family="none" font-weight="none" font-size="none" text-anchor="none" style="mix-blend-mode: normal"><path d="M0,172v-172h172v172z" fill="none"></path><g fill="#b0b3b8"><path d="M48.16,34.4c-6.43656,0 -18.62437,7.12188 -40.205,41.02469c-1.08844,1.70656 -1.31687,3.77594 -0.73906,5.67063c-0.215,0.45687 -0.33594,0.95406 -0.33594,1.46469v51.6c0,3.68188 2.96969,6.88 6.73219,6.88h55.16094c3.84312,0 7.33687,-2.29781 8.98969,-5.76469c0.04031,-0.08063 0.08062,-0.16125 0.1075,-0.25531l6.49031,-16.94469c0.43,-0.88688 0.99437,-1.11531 1.63937,-1.11531c0.645,0 1.20938,0.22844 1.63938,1.11531l6.49031,16.94469c0.02688,0.09406 0.06719,0.17469 0.1075,0.25531c1.65281,3.46687 5.14656,5.76469 8.98969,5.76469h55.16094c3.7625,0 6.73219,-3.19812 6.73219,-6.88v-51.6c0,-0.49719 -0.1075,-0.98094 -0.3225,-1.43781c0.5375,-1.74687 0.37625,-3.655 -0.52406,-5.29437c-10.30656,-18.89313 -25.08781,-41.42781 -36.99344,-41.42781c-17.2,0 -17.2,18.12719 -17.2,24.08c0,0.09406 0,0.18813 0,0.28219c0.22844,5.41531 4.085,13.47781 13.76,13.47781c1.70656,0 3.34594,-0.51062 4.77031,-1.45125c0.68531,2.76813 1.33031,5.59 1.935,8.33125h-31.37656c-2.82187,0 -4.77031,1.22281 -6.49031,2.08281c-1.70656,0.86 -3.21156,1.35719 -3.39969,1.35719h-6.57094c-0.17469,0 -1.67969,-0.49719 -3.38625,-1.35719c-1.72,-0.86 -3.66844,-2.08281 -6.49031,-2.08281h-31.13469c1.10187,-3.225 2.2575,-6.54406 3.45344,-9.72875c1.505,1.77375 3.57438,2.84875 6.45,2.84875c9.675,0 13.53156,-8.0625 13.76,-13.47781c0,-0.09406 0,-0.18812 0,-0.28219c0,-5.95281 0,-24.08 -17.2,-24.08zM48.16,41.28c10.32,0 10.32,10.60219 10.32,17.2c0,0 -0.28219,6.88 -6.88,6.88c-3.44,0 -3.44,-11.75781 -3.44,-17.2c-3.42656,0 -13.76,30.96 -13.76,30.96h-20.64c0,0 24.08,-37.84 34.4,-37.84zM127.28,41.28c10.32,0 30.96,37.84 30.96,37.84h-20.64c0,0 -6.59781,-30.96 -10.32,-30.96c0,5.44219 0.28219,17.2 -3.44,17.2c-6.59781,0 -6.88,-6.88 -6.88,-6.88c0,-6.59781 0,-17.2 10.32,-17.2zM13.76,86h59.07125c0.18813,0 1.67969,0.49719 3.39969,1.35719c1.72,0.86 3.66844,2.08281 6.47688,2.08281h6.57094c2.82188,0 4.77031,-1.22281 6.49031,-2.08281c1.70656,-0.86 3.21156,-1.35719 3.39969,-1.35719h59.07125v48.16h-55.01312c-1.12875,0 -2.19031,-0.65844 -2.76813,-1.84094l-6.49031,-16.95813c-0.02687,-0.08062 -0.06719,-0.17469 -0.1075,-0.25531c-1.53187,-3.19813 -4.73,-5.02563 -7.86094,-5.02563c-3.13094,0 -6.32906,1.8275 -7.86094,5.02563c-0.04031,0.08062 -0.08063,0.17469 -0.1075,0.25531l-6.49031,16.95813c-0.57781,1.1825 -1.63937,1.84094 -2.76812,1.84094h-55.01313zM23.99938,92.9875c-1.90813,0 -3.46688,1.49156 -3.46688,3.3325v27.56031c0,1.73344 1.74688,3.44 3.5475,3.44h37.84c1.73344,0 2.88906,-2.15 3.5475,-3.44c3.19813,-7.00094 4.12531,-14.76781 7.525,-26.53906c0.67188,-2.02906 0.14781,-4.35375 -4.23281,-4.35375zM103.10594,92.9875c-4.38062,0 -4.89125,2.32469 -4.21937,4.35375c3.39969,11.77125 4.3,19.53813 7.49812,26.53906c0.67188,1.29 1.8275,3.44 3.57438,3.44h37.84c1.78719,0 3.5475,-1.70656 3.5475,-3.44v-27.56031c0,-1.84094 -1.57219,-3.3325 -3.48031,-3.3325zM27.4125,99.8675h37.7325c-0.73906,2.84875 -1.35719,5.42875 -1.92156,7.80719c-1.22281,5.10625 -2.20375,9.19125 -3.73562,12.76563h-32.07531zM106.72063,99.8675h37.74594v20.57281h-32.07531c-1.54531,-3.57438 -2.51281,-7.65938 -3.73562,-12.76563c-0.56438,-2.37844 -1.1825,-4.95844 -1.935,-7.80719z"></path></g></g></svg>