<svg version="1.1" xmlns="http://www.w3.org/2000/svg" xmlns:xlink="http://www.w3.org/1999/xlink" viewBox="0 0 172 172"><g fill="none" fill-rule="nonzero" stroke="none" stroke-width="1" stroke-linecap="butt" stroke-linejoin="miter" stroke-miterlimit="10" stroke-dasharray="" stroke-dashoffset="0" font-family="none" font-weight="none" font-size="none" text-anchor="none" style="mix-blend-mode: normal"><path d="M0,172v-172h172v172z" fill="none"></path><g><path d="M43,60.91667c-19.7902,0 -35.83333,16.04313 -35.83333,35.83333c0,19.7902 16.04313,35.83333 35.83333,35.83333c19.7902,0 35.83333,-16.04313 35.83333,-35.83333c0,-19.7902 -16.04313,-35.83333 -35.83333,-35.83333z" fill="#b0b3b8"></path><path d="M86,32.25c-23.74824,0 -43,19.25176 -43,43c0,23.74824 19.25176,43 43,43c23.74824,0 43,-19.25176 43,-43c0,-23.74824 -19.25176,-43 -43,-43z" fill="#b0b3b8"></path><path d="M134.375,71.66667c-16.82167,0 -30.45833,13.63666 -30.45833,30.45833c0,16.82167 13.63666,30.45833 30.45833,30.45833c16.82167,0 30.45833,-13.63666 30.45833,-30.45833c0,-16.82167 -13.63666,-30.45833 -30.45833,-30.45833z" fill="#b0b3b8"></path><path d="M43,96.75h89.58333v35.83333h-89.58333z" fill="#b0b3b8"></path><path d="M78.83333,64.5h14.33333v35.83333h-14.33333z" fill="#1877f2"></path><path d="M86,118.25l21.5,-25.08333h-43z" fill="#1877f2"></path></g></g></svg>