<svg version="1.1" xmlns="http://www.w3.org/2000/svg" xmlns:xlink="http://www.w3.org/1999/xlink" viewBox="0 0 172 172"><g fill="none" fill-rule="nonzero" stroke="none" stroke-width="1" stroke-linecap="butt" stroke-linejoin="miter" stroke-miterlimit="10" stroke-dasharray="" stroke-dashoffset="0" font-family="none" font-weight="none" font-size="none" text-anchor="none" style="mix-blend-mode: normal"><path d="M0,172v-172h172v172z" fill="none"></path><g fill="#dc3545"><path d="M51.0625,26.875c-22.23486,0 -40.3125,18.2876 -40.3125,40.3125c0,7.68457 3.48535,14.34033 6.71875,19.14844c3.2334,4.8081 6.55078,7.89453 6.55078,7.89453l58.11719,58.28516l3.86328,3.86328l3.86328,-3.86328l58.11719,-58.28516c0,0 13.26953,-11.69482 13.26953,-27.04297c0,-22.0249 -18.07764,-40.3125 -40.3125,-40.3125c-18.45557,0 -30.33935,11.10693 -34.9375,15.78906c-4.59815,-4.68213 -16.48193,-15.78906 -34.9375,-15.78906zM51.0625,37.625c16.06201,0 30.90625,15.62109 30.90625,15.62109l4.03125,4.53516l4.03125,-4.53516c0,0 14.84424,-15.62109 30.90625,-15.62109c16.35596,0 29.5625,13.41651 29.5625,29.5625c0,8.29346 -10.07812,19.48438 -10.07812,19.48438l-54.42187,54.42188l-54.42187,-54.42187c0,0 -2.60352,-2.49854 -5.20703,-6.38281c-2.60352,-3.88428 -4.87109,-8.94433 -4.87109,-13.10156c0,-16.14599 13.20654,-29.5625 29.5625,-29.5625z"></path></g></g></svg>