<svg version="1.1" xmlns="http://www.w3.org/2000/svg" xmlns:xlink="http://www.w3.org/1999/xlink" viewBox="0 0 172 172"><g fill="none" fill-rule="nonzero" stroke="none" stroke-width="1" stroke-linecap="butt" stroke-linejoin="miter" stroke-miterlimit="10" stroke-dasharray="" stroke-dashoffset="0" font-family="none" font-weight="none" font-size="none" text-anchor="none" style="mix-blend-mode: normal"><path d="M0,172v-172h172v172z" fill="none"></path><g><path d="M86,0l25.08333,32.25h-50.16667z" fill="#1877f2"></path><path d="M78.83333,25.08333h14.33333v78.83333h-14.33333z" fill="#1877f2"></path><path d="M118.25,50.16667h-10.75v14.33333h10.75c3.95242,0 7.16667,3.21425 7.16667,7.16667v64.5c0,3.95242 -3.21425,7.16667 -7.16667,7.16667h-64.5c-3.95242,0 -7.16667,-3.21425 -7.16667,-7.16667v-64.5c0,-3.95242 3.21425,-7.16667 7.16667,-7.16667h10.75v-14.33333h-10.75c-11.85725,0 -21.5,9.64275 -21.5,21.5v64.5c0,11.85725 9.64275,21.5 21.5,21.5h64.5c11.85725,0 21.5,-9.64275 21.5,-21.5v-64.5c0,-11.85725 -9.64275,-21.5 -21.5,-21.5z" fill="#b0b3b8"></path></g></g></svg>