<svg version="1.1" xmlns="http://www.w3.org/2000/svg" xmlns:xlink="http://www.w3.org/1999/xlink" viewBox="0 0 172 172"><g fill="none" fill-rule="nonzero" stroke="none" stroke-width="1" stroke-linecap="butt" stroke-linejoin="miter" stroke-miterlimit="10" stroke-dasharray="" stroke-dashoffset="0" font-family="none" font-weight="none" font-size="none" text-anchor="none" style="mix-blend-mode: normal"><path d="M0,172v-172h172v172z" fill="none"></path><g><path d="M86,157.66667c-39.41667,0 -71.66667,-32.25 -71.66667,-71.66667c0,-16.84167 6.09167,-33.325 17.2,-46.225l10.75,9.31667c-8.95833,10.03333 -13.61667,23.29167 -13.61667,36.90833c0,31.53333 25.8,57.33333 57.33333,57.33333c31.53333,0 57.33333,-25.8 57.33333,-57.33333c0,-31.53333 -25.8,-57.33333 -57.33333,-57.33333v-14.33333c39.41667,0 71.66667,32.25 71.66667,71.66667c0,39.41667 -32.25,71.66667 -71.66667,71.66667z" fill="#7cb342"></path><path d="M96.75,43l-28.66667,-21.5l28.66667,-21.5z" fill="#7cb342"></path><path d="M64.5,53.75l6.45,-3.225l18.275,34.04167l-6.45,3.225z" fill="#e4e6eb"></path><path d="M83.13333,83.13333l6.09167,6.09167l-18.63333,18.275l-6.09167,-6.09167z" fill="#e4e6eb"></path><path d="M78.83333,86c0,3.94167 3.225,7.16667 7.16667,7.16667c3.94167,0 7.16667,-3.225 7.16667,-7.16667c0,-3.94167 -3.225,-7.16667 -7.16667,-7.16667c-3.94167,0 -7.16667,3.225 -7.16667,7.16667" fill="#e4e6eb"></path><path d="M82.41667,86c0,2.15 1.43333,3.58333 3.58333,3.58333c2.15,0 3.58333,-1.43333 3.58333,-3.58333c0,-2.15 -1.43333,-3.58333 -3.58333,-3.58333c-2.15,0 -3.58333,1.43333 -3.58333,3.58333" fill="#8bc34a"></path></g></g></svg>